General

Format                         : MPEG-4
Format profile                 : Base Media
Codec ID                       : isom
File size                      : 46.6 MiB
Duration                       : 3mn 45s
Overall bit rate mode          : Variable
Overall bit rate               : 1 733 Kbps
Encoded date                   : UTC 2012-10-09 04:29:02
Tagged date                    : UTC 2012-10-09 04:29:02

Video
ID                             : 1
Format                         : AVC
Format/Info                    : Advanced Video Codec
Format profile                 : High@L3.0
Format settings, CABAC         : Yes
Format settings, ReFrames      : 2 frames
Codec ID                       : avc1
Codec ID/Info                  : Advanced Video Coding
Duration                       : 3mn 45s
Bit rate                       : 1 540 Kbps
Maximum bit rate               : 3 786 Kbps
Width                          : 720 pixels
Height                         : 480 pixels
Display aspect ratio           : 16:9
Original display aspect ratio  : 16:9
Frame rate mode                : Constant
Frame rate                     : 29.970 fps
Standard                       : NTSC
Color space                    : YUV
Chroma subsampling             : 4:2:0
Bit depth                      : 8 bits
Scan type                      : Progressive
Bits/(Pixel*Frame)             : 0.149
Stream size                    : 41.4 MiB (89%)


Audio
ID                             : 2
Format                         : AAC
Format/Info                    : Advanced Audio Codec
Format profile                 : LC
Codec ID                       : 40
Duration                       : 3mn 45s
Bit rate mode                  : Variable
Bit rate                       : 192 Kbps
Maximum bit rate               : 231 Kbps
Channel(s)                     : 2 channels
Channel positions              : Front: L R
Sampling rate                  : 44.1 KHz
Compression mode               : Lossy
Stream size                    : 5.08 MiB (11%)